<svg xmlns="http://www.w3.org/2000/svg" version="1.1" xmlns:xlink="http://www.w3.org/1999/xlink" xmlns:svgjs="http://svgjs.dev/svgjs" width="2000" height="1247" viewBox="0 0 2000 1247"><g transform="matrix(1,0,0,1,-1.2121212121212466,0.504858299595071)"><svg viewBox="0 0 396 247" data-background-color="#af6834" preserveAspectRatio="xMidYMid meet" height="1247" width="2000" xmlns="http://www.w3.org/2000/svg" xmlns:xlink="http://www.w3.org/1999/xlink"><g id="tight-bounds" transform="matrix(1,0,0,1,0.2400000000000091,-0.09999999999999432)"><svg viewBox="0 0 395.52 247.2" height="247.2" width="395.52"><g><svg></svg></g><g><svg viewBox="0 0 395.52 247.2" height="247.2" width="395.52"><mask id="38599ec8-f6f8-413d-902e-a0dbe438b74f"><rect width="640" height="400" fill="white"></rect><g transform="matrix(1,0,0,1,39.55199999999999,80.52950045947597)"><svg viewBox="0 0 316.416 86.14099908104805" height="86.14099908104805" width="316.416"><g><svg viewBox="0 0 316.416 86.14099908104805" height="86.14099908104805" width="316.416"><g><svg viewBox="0 0 316.416 86.14099908104805" height="86.14099908104805" width="316.416"><g><svg viewBox="0 0 316.416 86.14099908104805" height="86.14099908104805" width="316.416"><g id="SvgjsG1814"><svg viewBox="0 0 316.416 86.14099908104805" height="86.14099908104805" width="316.416" id="SvgjsSvg1813"><g><svg viewBox="0 0 316.416 50.33890909090909" height="50.33890909090909" width="316.416"><g transform="matrix(1,0,0,1,0,0)"><svg width="316.416" viewBox="-1 -39 330.98 53.5" height="50.33890909090909" data-palette-color="#211f1f"><path d="M44.2 0L33.25 0 33.25-12.4Q33.25-14.7 33.43-17.13 33.6-19.55 33.8-21.2 34-22.85 34.05-23.3L34.05-23.3 33.85-23.3 27.5 0 18.85 0 12.45-23.25 12.25-23.25Q12.3-22.8 12.53-21.18 12.75-19.55 12.95-17.13 13.15-14.7 13.15-12.4L13.15-12.4 13.15 0 3 0 3-34.4 18.6-34.4 23.8-14.55 24-14.55 29.15-34.4 44.2-34.4 44.2 0ZM68-35Q76.9-35 81.75-30.45 86.6-25.9 86.6-17.2L86.6-17.2Q86.6-8.5 81.75-3.95 76.9 0.6 68 0.6L68 0.6Q59.1 0.6 54.27-3.93 49.45-8.45 49.45-17.2L49.45-17.2Q49.45-25.95 54.27-30.48 59.1-35 68-35L68-35ZM68-26.75Q64.45-26.75 62.6-24.6 60.75-22.45 60.75-18.8L60.75-18.8 60.75-15.6Q60.75-11.95 62.6-9.8 64.45-7.65 68-7.65L68-7.65Q71.55-7.65 73.42-9.8 75.3-11.95 75.3-15.6L75.3-15.6 75.3-18.8Q75.3-22.45 73.42-24.6 71.55-26.75 68-26.75L68-26.75ZM107-35Q113.6-35 117.85-32.33 122.1-29.65 122.2-24.4L122.2-24.4 122.2-23.8 111.85-23.8 111.85-24Q111.85-25.5 110.75-26.5 109.65-27.5 107.4-27.5L107.4-27.5Q105.2-27.5 104.02-26.85 102.85-26.2 102.85-25.25L102.85-25.25Q102.85-23.9 104.45-23.25 106.05-22.6 109.6-21.9L109.6-21.9Q113.75-21.05 116.42-20.13 119.1-19.2 121.1-17.1 123.1-15 123.15-11.4L123.15-11.4Q123.15-5.3 119.02-2.35 114.9 0.6 108 0.6L108 0.6Q99.95 0.6 95.47-2.1 91-4.8 91-11.65L91-11.65 101.45-11.65Q101.45-9.05 102.8-8.18 104.15-7.3 107-7.3L107-7.3Q109.1-7.3 110.47-7.75 111.85-8.2 111.85-9.6L111.85-9.6Q111.85-10.85 110.32-11.48 108.8-12.1 105.35-12.8L105.35-12.8Q101.15-13.7 98.4-14.68 95.65-15.65 93.6-17.9 91.55-20.15 91.55-24L91.55-24Q91.55-29.65 95.92-32.33 100.3-35 107-35L107-35ZM168.19-34.4Q170.79-34.4 172.97-33.33 175.14-32.25 176.42-30.3 177.69-28.35 177.69-25.95L177.69-25.95Q177.69-19.6 171.94-17.95L171.94-17.95 171.94-17.75Q178.49-16.25 178.49-9.15L178.49-9.15Q178.49-6.45 177.17-4.38 175.84-2.3 173.54-1.15 171.24 0 168.49 0L168.49 0 145.29 0 145.29-34.4 168.19-34.4ZM156.34-26.85L156.34-21 163.94-21Q165.04-21 165.77-21.78 166.49-22.55 166.49-23.7L166.49-23.7 166.49-24.2Q166.49-25.3 165.74-26.08 164.99-26.85 163.94-26.85L163.94-26.85 156.34-26.85ZM156.34-13.9L156.34-8 164.74-8Q165.84-8 166.57-8.78 167.29-9.55 167.29-10.7L167.29-10.7 167.29-11.2Q167.29-12.35 166.57-13.13 165.84-13.9 164.74-13.9L164.74-13.9 156.34-13.9ZM210.79 0L202.64 0 201.99-4Q200.44-1.85 197.91-0.63 195.39 0.6 192.59 0.6L192.59 0.6Q187.99 0.6 185.69-1.95 183.39-4.5 183.39-9.3L183.39-9.3 183.39-26.4 193.34-26.4 193.34-10.5Q193.34-8.8 194.21-7.78 195.09-6.75 196.69-6.75L196.69-6.75Q198.54-6.75 199.69-7.95 200.84-9.15 200.84-10.9L200.84-10.9 200.84-26.4 210.79-26.4 210.79 0ZM232.89-27.05Q234.04-27.05 234.94-26.78 235.84-26.5 235.84-26.45L235.84-26.45 235.84-18.1 232.64-18.1Q229.54-18.1 228.16-16.5 226.79-14.9 226.79-11.75L226.79-11.75 226.79 0 216.84 0 216.84-26.4 224.99-26.4 225.64-22.4Q226.54-24.7 228.49-25.88 230.44-27.05 232.89-27.05L232.89-27.05ZM269.98-31.35Q269.98-28.3 268.46-26.65 266.93-25 263.88-24.2L263.88-24.2Q265.33-23.1 266.16-21.63 266.98-20.15 266.98-18.5L266.98-18.5Q266.98-14.3 263.81-12.15 260.63-10 255.88-10L255.88-10 252.08-10Q248.93-10 248.93-8.55L248.93-8.55Q248.93-7.85 249.63-7.43 250.33-7 252.08-7L252.08-7 261.08-7Q265.48-7 267.73-4.7 269.98-2.4 269.98 1.45L269.98 1.45Q269.98 4.3 268.48 6.35 266.98 8.4 264.43 9.45 261.88 10.5 258.88 10.5L258.88 10.5 244.18 10.5Q242.38 10.5 240.86 9.65 239.33 8.8 238.43 7.33 237.53 5.85 237.53 4.05L237.53 4.05Q237.53 2.1 238.73 0.53 239.93-1.05 241.73-1.85L241.73-1.85Q240.53-2.7 239.83-3.9 239.13-5.1 239.13-6.5L239.13-6.5Q239.13-8.45 240.58-10.03 242.03-11.6 244.18-12.15L244.18-12.15Q242.23-13.4 241.08-15.03 239.93-16.65 239.93-18.45L239.93-18.45Q239.93-23.05 243.66-25.03 247.38-27 253.53-27L253.53-27Q256.23-27 257.88-26.7L257.88-26.7Q260.33-28.25 261.06-29.53 261.78-30.8 261.78-31.35L261.78-31.35 269.98-31.35ZM253.43-21.8Q251.78-21.8 250.73-20.95 249.68-20.1 249.68-18.5L249.68-18.5Q249.68-16.85 250.66-16.03 251.63-15.2 253.43-15.2L253.43-15.2Q255.23-15.2 256.26-16.03 257.28-16.85 257.28-18.5L257.28-18.5Q257.28-20.15 256.26-20.98 255.23-21.8 253.43-21.8L253.43-21.8ZM249.58 0Q248.43 0 247.71 0.63 246.98 1.25 246.98 2.4L246.98 2.4Q246.98 3.55 247.73 4.25 248.48 4.95 249.58 4.95L249.58 4.95 257.38 4.95Q258.48 4.95 259.26 4.28 260.03 3.6 260.03 2.45L260.03 2.45Q260.03 1.3 259.28 0.65 258.53 0 257.38 0L257.38 0 249.58 0ZM287.28-27Q294.53-27 298.36-23.6 302.18-20.2 302.18-13.2L302.18-13.2 302.18-11.5 282.38-11.5Q282.38-8.65 283.66-7.2 284.93-5.75 287.68-5.75L287.68-5.75Q290.18-5.75 291.36-6.8 292.53-7.85 292.53-9.6L292.53-9.6 302.18-9.6Q302.18-4.8 298.53-2.1 294.88 0.6 287.88 0.6L287.88 0.6Q280.53 0.6 276.48-2.83 272.43-6.25 272.43-13.2L272.43-13.2Q272.43-20 276.38-23.5 280.33-27 287.28-27L287.28-27ZM287.68-20.65Q282.98-20.65 282.43-16.2L282.43-16.2 292.13-16.2Q292.13-18.25 290.96-19.45 289.78-20.65 287.68-20.65L287.68-20.65ZM323.03-27.05Q324.18-27.05 325.08-26.78 325.98-26.5 325.98-26.45L325.98-26.45 325.98-18.1 322.78-18.1Q319.68-18.1 318.3-16.5 316.93-14.9 316.93-11.75L316.93-11.75 316.93 0 306.98 0 306.98-26.4 315.13-26.4 315.78-22.4Q316.68-24.7 318.63-25.88 320.58-27.05 323.03-27.05L323.03-27.05Z" opacity="1" transform="matrix(1,0,0,1,0,0)" fill="black" class="wordmark-text-0" id="SvgjsPath1812" stroke-width="7" stroke="black" stroke-linejoin="round"></path></svg></g></svg></g><g transform="matrix(1,0,0,1,3.5,60.63820961978182)"><svg viewBox="0 0 309.416 25.502789461266225" height="25.502789461266225" width="309.416"><g transform="matrix(1,0,0,1,0,0)"><svg width="309.416" viewBox="-2.55 -40.83 636.68 53.41" height="25.502789461266225" data-palette-color="#211f1f"><path d="M23.88-32.52L22.7-30.23Q22.48-29.85 22.23-29.66 21.98-29.48 21.58-29.48L21.58-29.48Q21.15-29.48 20.59-29.9 20.03-30.33 19.16-30.84 18.3-31.35 17.09-31.78 15.88-32.2 14.15-32.2L14.15-32.2Q12.53-32.2 11.28-31.76 10.03-31.33 9.19-30.58 8.35-29.83 7.93-28.81 7.5-27.8 7.5-26.63L7.5-26.63Q7.5-25.13 8.24-24.14 8.97-23.15 10.19-22.45 11.4-21.75 12.94-21.24 14.48-20.73 16.09-20.18 17.7-19.63 19.24-18.94 20.78-18.25 21.99-17.2 23.2-16.15 23.94-14.63 24.68-13.1 24.68-10.88L24.68-10.88Q24.68-8.53 23.88-6.46 23.08-4.4 21.54-2.88 20-1.35 17.76-0.48 15.53 0.4 12.68 0.4L12.68 0.4Q9.2 0.4 6.34-0.86 3.48-2.13 1.45-4.28L1.45-4.28 2.85-6.58Q3.05-6.85 3.34-7.04 3.63-7.23 3.98-7.23L3.98-7.23Q4.5-7.23 5.18-6.66 5.85-6.1 6.86-5.43 7.88-4.75 9.31-4.19 10.75-3.63 12.83-3.63L12.83-3.63Q14.55-3.63 15.9-4.1 17.25-4.58 18.19-5.44 19.13-6.3 19.63-7.5 20.13-8.7 20.13-10.18L20.13-10.18Q20.13-11.8 19.39-12.84 18.65-13.88 17.45-14.58 16.25-15.28 14.71-15.76 13.18-16.25 11.56-16.76 9.95-17.28 8.41-17.95 6.88-18.63 5.68-19.7 4.48-20.78 3.74-22.39 3-24 3-26.38L3-26.38Q3-28.28 3.74-30.05 4.48-31.83 5.88-33.2 7.28-34.58 9.34-35.4 11.4-36.23 14.08-36.23L14.08-36.23Q17.07-36.23 19.55-35.27 22.03-34.33 23.88-32.52L23.88-32.52ZM48.75-16.2L48.75 0 46.77 0Q46.12 0 45.72-0.2 45.32-0.4 45.2-1.05L45.2-1.05 44.7-3.4Q43.7-2.5 42.75-1.79 41.8-1.07 40.75-0.59 39.7-0.1 38.51 0.15 37.32 0.4 35.87 0.4L35.87 0.4Q34.4 0.4 33.11-0.01 31.82-0.43 30.87-1.25 29.92-2.08 29.36-3.34 28.8-4.6 28.8-6.33L28.8-6.33Q28.8-7.83 29.62-9.21 30.45-10.6 32.28-11.68 34.12-12.75 37.1-13.44 40.07-14.13 44.37-14.23L44.37-14.23 44.37-16.2Q44.37-19.15 43.11-20.66 41.85-22.18 39.37-22.18L39.37-22.18Q37.75-22.18 36.63-21.76 35.52-21.35 34.71-20.84 33.9-20.33 33.31-19.91 32.72-19.5 32.15-19.5L32.15-19.5Q31.7-19.5 31.36-19.74 31.02-19.98 30.82-20.33L30.82-20.33 30.02-21.75Q32.12-23.78 34.55-24.78 36.97-25.78 39.92-25.78L39.92-25.78Q42.05-25.78 43.7-25.08 45.35-24.38 46.47-23.13 47.6-21.88 48.17-20.1 48.75-18.32 48.75-16.2L48.75-16.2ZM37.2-2.73L37.2-2.73Q38.37-2.73 39.35-2.96 40.32-3.2 41.19-3.64 42.05-4.08 42.84-4.7 43.62-5.33 44.37-6.13L44.37-6.13 44.37-11.4Q41.3-11.3 39.15-10.91 37-10.53 35.65-9.9 34.3-9.28 33.69-8.43 33.07-7.58 33.07-6.53L33.07-6.53Q33.07-5.53 33.4-4.8 33.72-4.08 34.27-3.61 34.82-3.15 35.57-2.94 36.32-2.73 37.2-2.73ZM61.82 0L51.5-25.33 55.15-25.33Q55.67-25.33 56.02-25.05 56.37-24.78 56.52-24.4L56.52-24.4 62.95-8.1Q63.3-7.2 63.5-6.3 63.7-5.4 63.87-4.53L63.87-4.53Q64.07-5.4 64.3-6.3 64.52-7.2 64.87-8.1L64.87-8.1 71.37-24.4Q71.52-24.8 71.86-25.06 72.2-25.33 72.7-25.33L72.7-25.33 76.17-25.33 65.84 0 61.82 0ZM89.89-25.73L89.89-25.73Q92.67-25.73 94.91-24.8 97.14-23.88 98.71-22.18 100.27-20.48 101.11-18.06 101.94-15.65 101.94-12.68L101.94-12.68Q101.94-9.68 101.11-7.28 100.27-4.88 98.71-3.18 97.14-1.48 94.91-0.56 92.67 0.35 89.89 0.35L89.89 0.35Q87.12 0.35 84.88-0.56 82.64-1.48 81.07-3.18 79.49-4.88 78.64-7.28 77.79-9.68 77.79-12.68L77.79-12.68Q77.79-15.65 78.64-18.06 79.49-20.48 81.07-22.18 82.64-23.88 84.88-24.8 87.12-25.73 89.89-25.73ZM89.89-3.13L89.89-3.13Q93.64-3.13 95.49-5.64 97.34-8.15 97.34-12.65L97.34-12.65Q97.34-17.18 95.49-19.7 93.64-22.23 89.89-22.23L89.89-22.23Q87.99-22.23 86.59-21.58 85.19-20.93 84.26-19.7 83.32-18.48 82.86-16.69 82.39-14.9 82.39-12.65L82.39-12.65Q82.39-10.4 82.86-8.63 83.32-6.85 84.26-5.64 85.19-4.42 86.59-3.78 87.99-3.13 89.89-3.13ZM111.89 0L107.44 0 107.44-25.33 109.99-25.33Q110.72-25.33 110.99-25.05 111.27-24.78 111.37-24.1L111.37-24.1 111.67-20.15Q112.97-22.8 114.88-24.29 116.79-25.78 119.37-25.78L119.37-25.78Q120.42-25.78 121.27-25.54 122.12-25.3 122.84-24.88L122.84-24.88 122.27-21.55Q122.09-20.93 121.49-20.93L121.49-20.93Q121.14-20.93 120.42-21.16 119.69-21.4 118.39-21.4L118.39-21.4Q116.07-21.4 114.5-20.05 112.94-18.7 111.89-16.13L111.89-16.13 111.89 0ZM144.91 0.4L144.91 0.4Q141.91 0.4 140.3-1.28 138.69-2.95 138.69-6.1L138.69-6.1 138.69-21.6 135.64-21.6Q135.24-21.6 134.96-21.84 134.69-22.08 134.69-22.58L134.69-22.58 134.69-24.35 138.84-24.88 139.86-32.7Q139.91-33.08 140.19-33.31 140.46-33.55 140.89-33.55L140.89-33.55 143.14-33.55 143.14-24.83 150.39-24.83 150.39-21.6 143.14-21.6 143.14-6.4Q143.14-4.8 143.91-4.03 144.69-3.25 145.91-3.25L145.91-3.25Q146.61-3.25 147.12-3.44 147.64-3.63 148.01-3.85 148.39-4.08 148.65-4.26 148.91-4.45 149.11-4.45L149.11-4.45Q149.46-4.45 149.74-4.03L149.74-4.03 151.03-1.9Q149.89-0.83 148.26-0.21 146.64 0.4 144.91 0.4ZM160.33 0L155.88 0 155.88-36.83 160.33-36.83 160.33-21.93Q161.96-23.65 163.93-24.69 165.91-25.73 168.48-25.73L168.48-25.73Q170.56-25.73 172.15-25.04 173.73-24.35 174.8-23.09 175.86-21.83 176.41-20.05 176.96-18.28 176.96-16.13L176.96-16.13 176.96 0 172.51 0 172.51-16.13Q172.51-19 171.2-20.59 169.88-22.18 167.18-22.18L167.18-22.18Q165.21-22.18 163.5-21.23 161.78-20.28 160.33-18.65L160.33-18.65 160.33 0ZM193.71-25.73L193.71-25.73Q195.98-25.73 197.91-24.96 199.83-24.2 201.23-22.76 202.63-21.33 203.42-19.21 204.21-17.1 204.21-14.4L204.21-14.4Q204.21-13.35 203.98-13 203.76-12.65 203.13-12.65L203.13-12.65 186.28-12.65Q186.33-10.25 186.93-8.47 187.53-6.7 188.58-5.51 189.63-4.33 191.08-3.74 192.53-3.15 194.33-3.15L194.33-3.15Q196.01-3.15 197.22-3.54 198.43-3.93 199.31-4.38 200.18-4.83 200.77-5.21 201.36-5.6 201.78-5.6L201.78-5.6Q202.33-5.6 202.63-5.18L202.63-5.18 203.88-3.55Q203.06-2.55 201.91-1.81 200.76-1.07 199.44-0.6 198.13-0.13 196.73 0.11 195.33 0.35 193.96 0.35L193.96 0.35Q191.33 0.35 189.12-0.54 186.91-1.43 185.29-3.14 183.68-4.85 182.78-7.38 181.88-9.9 181.88-13.18L181.88-13.18Q181.88-15.83 182.69-18.13 183.51-20.43 185.03-22.11 186.56-23.8 188.76-24.76 190.96-25.73 193.71-25.73ZM193.81-22.45L193.81-22.45Q190.58-22.45 188.73-20.59 186.88-18.73 186.43-15.43L186.43-15.43 200.21-15.43Q200.21-16.98 199.78-18.26 199.36-19.55 198.53-20.49 197.71-21.43 196.52-21.94 195.33-22.45 193.81-22.45ZM237.85-12.95L237.85-12.95Q238.2-12.35 238.46-11.69 238.73-11.03 238.98-10.35L238.98-10.35Q239.23-11.05 239.5-11.69 239.78-12.33 240.13-12.98L240.13-12.98 252.25-35Q252.58-35.58 252.93-35.7 253.28-35.83 253.93-35.83L253.93-35.83 257.5-35.83 257.5 0 253.25 0 253.25-26.33Q253.25-26.85 253.28-27.45 253.3-28.05 253.35-28.68L253.35-28.68 241.08-6.28Q240.45-5.15 239.33-5.15L239.33-5.15 238.63-5.15Q237.5-5.15 236.88-6.28L236.88-6.28 224.33-28.75Q224.4-28.1 224.44-27.48 224.48-26.85 224.48-26.33L224.48-26.33 224.48 0 220.23 0 220.23-35.83 223.8-35.83Q224.45-35.83 224.8-35.7 225.15-35.58 225.48-35L225.48-35 237.85-12.95ZM299.5-17.9L299.5-17.9Q299.5-13.88 298.22-10.51 296.95-7.15 294.62-4.73 292.3-2.3 289.04-0.96 285.77 0.38 281.82 0.38L281.82 0.38Q277.87 0.38 274.62-0.96 271.37-2.3 269.05-4.73 266.72-7.15 265.45-10.51 264.17-13.88 264.17-17.9L264.17-17.9Q264.17-21.93 265.45-25.29 266.72-28.65 269.05-31.09 271.37-33.52 274.62-34.88 277.87-36.23 281.82-36.23L281.82-36.23Q285.77-36.23 289.04-34.88 292.3-33.52 294.62-31.09 296.95-28.65 298.22-25.29 299.5-21.93 299.5-17.9ZM294.52-17.9L294.52-17.9Q294.52-21.2 293.62-23.83 292.72-26.45 291.07-28.26 289.42-30.08 287.07-31.05 284.72-32.02 281.82-32.02L281.82-32.02Q278.95-32.02 276.6-31.05 274.25-30.08 272.58-28.26 270.92-26.45 270.02-23.83 269.12-21.2 269.12-17.9L269.12-17.9Q269.12-14.6 270.02-11.99 270.92-9.38 272.58-7.56 274.25-5.75 276.6-4.79 278.95-3.83 281.82-3.83L281.82-3.83Q284.72-3.83 287.07-4.79 289.42-5.75 291.07-7.56 292.72-9.38 293.62-11.99 294.52-14.6 294.52-17.9ZM325.65-32.52L324.47-30.23Q324.25-29.85 324-29.66 323.75-29.48 323.35-29.48L323.35-29.48Q322.92-29.48 322.36-29.9 321.8-30.33 320.93-30.84 320.07-31.35 318.86-31.78 317.65-32.2 315.92-32.2L315.92-32.2Q314.3-32.2 313.05-31.76 311.8-31.33 310.96-30.58 310.12-29.83 309.7-28.81 309.27-27.8 309.27-26.63L309.27-26.63Q309.27-25.13 310.01-24.14 310.75-23.15 311.96-22.45 313.17-21.75 314.71-21.24 316.25-20.73 317.86-20.18 319.47-19.63 321.01-18.94 322.55-18.25 323.76-17.2 324.97-16.15 325.71-14.63 326.45-13.1 326.45-10.88L326.45-10.88Q326.45-8.53 325.65-6.46 324.85-4.4 323.31-2.88 321.77-1.35 319.53-0.48 317.3 0.4 314.45 0.4L314.45 0.4Q310.97 0.4 308.11-0.86 305.25-2.13 303.22-4.28L303.22-4.28 304.62-6.58Q304.82-6.85 305.11-7.04 305.4-7.23 305.75-7.23L305.75-7.23Q306.27-7.23 306.95-6.66 307.62-6.1 308.63-5.43 309.65-4.75 311.08-4.19 312.52-3.63 314.6-3.63L314.6-3.63Q316.32-3.63 317.67-4.1 319.02-4.58 319.96-5.44 320.9-6.3 321.4-7.5 321.9-8.7 321.9-10.18L321.9-10.18Q321.9-11.8 321.16-12.84 320.42-13.88 319.22-14.58 318.02-15.28 316.48-15.76 314.95-16.25 313.33-16.76 311.72-17.28 310.18-17.95 308.65-18.63 307.45-19.7 306.25-20.78 305.51-22.39 304.77-24 304.77-26.38L304.77-26.38Q304.77-28.28 305.51-30.05 306.25-31.83 307.65-33.2 309.05-34.58 311.11-35.4 313.17-36.23 315.85-36.23L315.85-36.23Q318.85-36.23 321.32-35.27 323.8-34.33 325.65-32.52L325.65-32.52ZM330.62-3.08L330.62-3.08Q330.62-3.65 330.83-4.16 331.04-4.67 331.43-5.06 331.82-5.45 332.37-5.68 332.92-5.9 333.57-5.9L333.57-5.9Q334.32-5.9 334.91-5.63 335.49-5.35 335.88-4.86 336.27-4.38 336.47-3.74 336.67-3.1 336.67-2.35L336.67-2.35Q336.67-1.23 336.34-0.01 336.02 1.2 335.42 2.39 334.82 3.58 333.93 4.7 333.04 5.83 331.92 6.78L331.92 6.78 331.17 6.05Q330.84 5.75 330.84 5.35L330.84 5.35Q330.84 5.03 331.19 4.67L331.19 4.67Q331.44 4.4 331.83 3.94 332.22 3.48 332.62 2.88 333.02 2.27 333.36 1.55 333.69 0.83 333.84 0L333.84 0 333.52 0Q332.87 0 332.34-0.23 331.82-0.45 331.43-0.86 331.04-1.28 330.83-1.84 330.62-2.4 330.62-3.08ZM349.21-35.83L377.26-35.83 377.26-31.75 365.69-31.75 365.69 0 360.84 0 360.84-31.75 349.21-31.75 349.21-35.83ZM394.01-16.2L394.01 0 392.04 0Q391.39 0 390.99-0.2 390.59-0.4 390.46-1.05L390.46-1.05 389.96-3.4Q388.96-2.5 388.01-1.79 387.06-1.07 386.01-0.59 384.96-0.1 383.77 0.15 382.59 0.4 381.14 0.4L381.14 0.4Q379.66 0.4 378.37-0.01 377.09-0.43 376.14-1.25 375.19-2.08 374.62-3.34 374.06-4.6 374.06-6.33L374.06-6.33Q374.06-7.83 374.89-9.21 375.71-10.6 377.55-11.68 379.39-12.75 382.36-13.44 385.34-14.13 389.64-14.23L389.64-14.23 389.64-16.2Q389.64-19.15 388.37-20.66 387.11-22.18 384.64-22.18L384.64-22.18Q383.01-22.18 381.9-21.76 380.79-21.35 379.97-20.84 379.16-20.33 378.57-19.91 377.99-19.5 377.41-19.5L377.41-19.5Q376.96-19.5 376.62-19.74 376.29-19.98 376.09-20.33L376.09-20.33 375.29-21.75Q377.39-23.78 379.81-24.78 382.24-25.78 385.19-25.78L385.19-25.78Q387.31-25.78 388.96-25.08 390.61-24.38 391.74-23.13 392.86-21.88 393.44-20.1 394.01-18.32 394.01-16.2L394.01-16.2ZM382.46-2.73L382.46-2.73Q383.64-2.73 384.61-2.96 385.59-3.2 386.45-3.64 387.31-4.08 388.1-4.7 388.89-5.33 389.64-6.13L389.64-6.13 389.64-11.4Q386.56-11.3 384.41-10.91 382.26-10.53 380.91-9.9 379.56-9.28 378.95-8.43 378.34-7.58 378.34-6.53L378.34-6.53Q378.34-5.53 378.66-4.8 378.99-4.08 379.54-3.61 380.09-3.15 380.84-2.94 381.59-2.73 382.46-2.73ZM416.26-22.78L415.26-21.15Q414.96-20.6 414.33-20.6L414.33-20.6Q413.96-20.6 413.48-20.88 413.01-21.15 412.32-21.49 411.63-21.83 410.68-22.11 409.73-22.4 408.43-22.4L408.43-22.4Q407.31-22.4 406.41-22.11 405.51-21.83 404.87-21.33 404.23-20.83 403.9-20.16 403.56-19.5 403.56-18.73L403.56-18.73Q403.56-17.75 404.12-17.1 404.68-16.45 405.61-15.98 406.53-15.5 407.71-15.14 408.88-14.78 410.12-14.36 411.36-13.95 412.53-13.45 413.71-12.95 414.63-12.2 415.56-11.45 416.12-10.36 416.68-9.28 416.68-7.75L416.68-7.75Q416.68-6 416.06-4.51 415.43-3.03 414.21-1.94 412.98-0.85 411.21-0.23 409.43 0.4 407.11 0.4L407.11 0.4Q404.46 0.4 402.31-0.46 400.16-1.33 398.66-2.68L398.66-2.68 399.71-4.38Q399.91-4.7 400.18-4.88 400.46-5.05 400.91-5.05L400.91-5.05Q401.36-5.05 401.86-4.7 402.36-4.35 403.07-3.93 403.78-3.5 404.8-3.15 405.81-2.8 407.33-2.8L407.33-2.8Q408.63-2.8 409.61-3.14 410.58-3.48 411.23-4.05 411.88-4.63 412.2-5.38 412.51-6.13 412.51-6.98L412.51-6.98Q412.51-8.03 411.95-8.71 411.38-9.4 410.46-9.89 409.53-10.38 408.35-10.74 407.16-11.1 405.92-11.5 404.68-11.9 403.5-12.41 402.31-12.93 401.38-13.7 400.46-14.48 399.9-15.61 399.33-16.75 399.33-18.38L399.33-18.38Q399.33-19.83 399.93-21.16 400.53-22.5 401.68-23.51 402.83-24.53 404.51-25.13 406.18-25.73 408.33-25.73L408.33-25.73Q410.83-25.73 412.82-24.94 414.81-24.15 416.26-22.78L416.26-22.78ZM430.13 0.4L430.13 0.4Q427.13 0.4 425.52-1.28 423.91-2.95 423.91-6.1L423.91-6.1 423.91-21.6 420.86-21.6Q420.46-21.6 420.18-21.84 419.91-22.08 419.91-22.58L419.91-22.58 419.91-24.35 424.06-24.88 425.08-32.7Q425.13-33.08 425.41-33.31 425.68-33.55 426.11-33.55L426.11-33.55 428.36-33.55 428.36-24.83 435.61-24.83 435.61-21.6 428.36-21.6 428.36-6.4Q428.36-4.8 429.13-4.03 429.91-3.25 431.13-3.25L431.13-3.25Q431.83-3.25 432.34-3.44 432.86-3.63 433.23-3.85 433.61-4.08 433.87-4.26 434.13-4.45 434.33-4.45L434.33-4.45Q434.68-4.45 434.96-4.03L434.96-4.03 436.26-1.9Q435.11-0.83 433.48-0.21 431.86 0.4 430.13 0.4ZM451.13-25.73L451.13-25.73Q453.4-25.73 455.33-24.96 457.25-24.2 458.65-22.76 460.05-21.33 460.84-19.21 461.63-17.1 461.63-14.4L461.63-14.4Q461.63-13.35 461.4-13 461.18-12.65 460.55-12.65L460.55-12.65 443.7-12.65Q443.75-10.25 444.35-8.47 444.95-6.7 446-5.51 447.05-4.33 448.5-3.74 449.95-3.15 451.75-3.15L451.75-3.15Q453.43-3.15 454.64-3.54 455.85-3.93 456.73-4.38 457.6-4.83 458.19-5.21 458.78-5.6 459.2-5.6L459.2-5.6Q459.75-5.6 460.05-5.18L460.05-5.18 461.3-3.55Q460.48-2.55 459.33-1.81 458.18-1.07 456.87-0.6 455.55-0.13 454.15 0.11 452.75 0.35 451.38 0.35L451.38 0.35Q448.75 0.35 446.54-0.54 444.33-1.43 442.72-3.14 441.1-4.85 440.2-7.38 439.3-9.9 439.3-13.18L439.3-13.18Q439.3-15.83 440.12-18.13 440.93-20.43 442.45-22.11 443.98-23.8 446.18-24.76 448.38-25.73 451.13-25.73ZM451.23-22.45L451.23-22.45Q448-22.45 446.15-20.59 444.3-18.73 443.85-15.43L443.85-15.43 457.63-15.43Q457.63-16.98 457.2-18.26 456.78-19.55 455.95-20.49 455.13-21.43 453.94-21.94 452.75-22.45 451.23-22.45ZM484.62 0.4L484.62 0.4Q481.62 0.4 480.01-1.28 478.4-2.95 478.4-6.1L478.4-6.1 478.4-21.6 475.35-21.6Q474.95-21.6 474.67-21.84 474.4-22.08 474.4-22.58L474.4-22.58 474.4-24.35 478.55-24.88 479.57-32.7Q479.62-33.08 479.9-33.31 480.17-33.55 480.6-33.55L480.6-33.55 482.85-33.55 482.85-24.83 490.1-24.83 490.1-21.6 482.85-21.6 482.85-6.4Q482.85-4.8 483.62-4.03 484.4-3.25 485.62-3.25L485.62-3.25Q486.32-3.25 486.84-3.44 487.35-3.63 487.72-3.85 488.1-4.08 488.36-4.26 488.62-4.45 488.82-4.45L488.82-4.45Q489.17-4.45 489.45-4.03L489.45-4.03 490.75-1.9Q489.6-0.83 487.97-0.21 486.35 0.4 484.62 0.4ZM500.05 0L495.59 0 495.59-36.83 500.05-36.83 500.05-21.93Q501.67-23.65 503.64-24.69 505.62-25.73 508.19-25.73L508.19-25.73Q510.27-25.73 511.86-25.04 513.44-24.35 514.51-23.09 515.57-21.83 516.12-20.05 516.67-18.28 516.67-16.13L516.67-16.13 516.67 0 512.22 0 512.22-16.13Q512.22-19 510.91-20.59 509.59-22.18 506.89-22.18L506.89-22.18Q504.92-22.18 503.21-21.23 501.5-20.28 500.05-18.65L500.05-18.65 500.05 0ZM533.42-25.73L533.42-25.73Q535.69-25.73 537.62-24.96 539.54-24.2 540.94-22.76 542.34-21.33 543.13-19.21 543.92-17.1 543.92-14.4L543.92-14.4Q543.92-13.35 543.69-13 543.47-12.65 542.84-12.65L542.84-12.65 525.99-12.65Q526.04-10.25 526.64-8.47 527.24-6.7 528.29-5.51 529.34-4.33 530.79-3.74 532.24-3.15 534.04-3.15L534.04-3.15Q535.72-3.15 536.93-3.54 538.14-3.93 539.02-4.38 539.89-4.83 540.48-5.21 541.07-5.6 541.49-5.6L541.49-5.6Q542.04-5.6 542.34-5.18L542.34-5.18 543.59-3.55Q542.77-2.55 541.62-1.81 540.47-1.07 539.15-0.6 537.84-0.13 536.44 0.11 535.04 0.35 533.67 0.35L533.67 0.35Q531.04 0.35 528.83-0.54 526.62-1.43 525-3.14 523.39-4.85 522.49-7.38 521.59-9.9 521.59-13.18L521.59-13.18Q521.59-15.83 522.4-18.13 523.22-20.43 524.74-22.11 526.27-23.8 528.47-24.76 530.67-25.73 533.42-25.73ZM533.52-22.45L533.52-22.45Q530.29-22.45 528.44-20.59 526.59-18.73 526.14-15.43L526.14-15.43 539.92-15.43Q539.92-16.98 539.49-18.26 539.07-19.55 538.24-20.49 537.42-21.43 536.23-21.94 535.04-22.45 533.52-22.45ZM573.41-35.83L573.41-12.38Q573.41-9.38 572.67-7 571.94-4.63 570.5-2.99 569.06-1.35 566.96-0.48 564.86 0.4 562.14 0.4L562.14 0.4Q559.71 0.4 557.09-0.3L557.09-0.3Q557.14-1.03 557.21-1.74 557.29-2.45 557.36-3.15L557.36-3.15Q557.41-3.58 557.67-3.84 557.94-4.1 558.46-4.1L558.46-4.1Q558.91-4.1 559.66-3.88 560.41-3.65 561.66-3.65L561.66-3.65Q563.31-3.65 564.6-4.15 565.89-4.65 566.77-5.7 567.66-6.75 568.12-8.39 568.59-10.03 568.59-12.28L568.59-12.28 568.59-35.83 573.41-35.83ZM591.68-25.73L591.68-25.73Q594.46-25.73 596.7-24.8 598.93-23.88 600.5-22.18 602.06-20.48 602.9-18.06 603.73-15.65 603.73-12.68L603.73-12.68Q603.73-9.68 602.9-7.28 602.06-4.88 600.5-3.18 598.93-1.48 596.7-0.56 594.46 0.35 591.68 0.35L591.68 0.35Q588.91 0.35 586.67-0.56 584.43-1.48 582.86-3.18 581.28-4.88 580.43-7.28 579.58-9.68 579.58-12.68L579.58-12.68Q579.58-15.65 580.43-18.06 581.28-20.48 582.86-22.18 584.43-23.88 586.67-24.8 588.91-25.73 591.68-25.73ZM591.68-3.13L591.68-3.13Q595.43-3.13 597.28-5.64 599.13-8.15 599.13-12.65L599.13-12.65Q599.13-17.18 597.28-19.7 595.43-22.23 591.68-22.23L591.68-22.23Q589.78-22.23 588.38-21.58 586.98-20.93 586.05-19.7 585.11-18.48 584.65-16.69 584.18-14.9 584.18-12.65L584.18-12.65Q584.18-10.4 584.65-8.63 585.11-6.85 586.05-5.64 586.98-4.42 588.38-3.78 589.78-3.13 591.68-3.13ZM630.13-25.33L616.01 7.48Q615.78 7.98 615.44 8.28 615.11 8.58 614.41 8.58L614.41 8.58 611.11 8.58 615.73-1.48 605.28-25.33 609.13-25.33Q609.71-25.33 610.03-25.04 610.36-24.75 610.51-24.4L610.51-24.4 617.28-8.45Q617.51-7.9 617.67-7.35 617.83-6.8 617.96-6.23L617.96-6.23Q618.13-6.8 618.31-7.35 618.48-7.9 618.71-8.47L618.71-8.47 625.28-24.4Q625.43-24.8 625.79-25.06 626.16-25.33 626.58-25.33L626.58-25.33 630.13-25.33Z" opacity="1" transform="matrix(1,0,0,1,0,0)" fill="black" class="slogan-text-1" id="SvgjsPath1811" stroke-width="7" stroke="black" stroke-linejoin="round"></path></svg></g></svg></g></svg></g></svg></g></svg></g></svg></g></svg></g></mask><g transform="matrix(1,0,0,1,39.55199999999999,80.52950045947597)"><svg viewBox="0 0 316.416 86.14099908104805" height="86.14099908104805" width="316.416"><g><svg viewBox="0 0 316.416 86.14099908104805" height="86.14099908104805" width="316.416"><g><svg viewBox="0 0 316.416 86.14099908104805" height="86.14099908104805" width="316.416"><g><svg viewBox="0 0 316.416 86.14099908104805" height="86.14099908104805" width="316.416"><g id="textblocktransform"><svg viewBox="0 0 316.416 86.14099908104805" height="86.14099908104805" width="316.416" id="textblock"><g><svg viewBox="0 0 316.416 50.33890909090909" height="50.33890909090909" width="316.416"><g transform="matrix(1,0,0,1,0,0)"><svg width="316.416" viewBox="-1 -39 330.98 53.5" height="50.33890909090909" data-palette-color="#211f1f"><path d="M44.2 0L33.25 0 33.25-12.4Q33.25-14.7 33.43-17.13 33.6-19.55 33.8-21.2 34-22.85 34.05-23.3L34.05-23.3 33.85-23.3 27.5 0 18.85 0 12.45-23.25 12.25-23.25Q12.3-22.8 12.53-21.18 12.75-19.55 12.95-17.13 13.15-14.7 13.15-12.4L13.15-12.4 13.15 0 3 0 3-34.4 18.6-34.4 23.8-14.55 24-14.55 29.15-34.4 44.2-34.4 44.2 0ZM68-35Q76.9-35 81.75-30.45 86.6-25.9 86.6-17.2L86.6-17.2Q86.6-8.5 81.75-3.95 76.9 0.6 68 0.6L68 0.6Q59.1 0.6 54.27-3.93 49.45-8.45 49.45-17.2L49.45-17.2Q49.45-25.95 54.27-30.48 59.1-35 68-35L68-35ZM68-26.75Q64.45-26.75 62.6-24.6 60.75-22.45 60.75-18.8L60.75-18.8 60.75-15.6Q60.75-11.95 62.6-9.8 64.45-7.65 68-7.65L68-7.65Q71.55-7.65 73.42-9.8 75.3-11.95 75.3-15.6L75.3-15.6 75.3-18.8Q75.3-22.45 73.42-24.6 71.55-26.75 68-26.75L68-26.75ZM107-35Q113.6-35 117.85-32.33 122.1-29.65 122.2-24.4L122.2-24.4 122.2-23.8 111.85-23.8 111.85-24Q111.85-25.5 110.75-26.5 109.65-27.5 107.4-27.5L107.4-27.5Q105.2-27.5 104.02-26.85 102.85-26.2 102.85-25.25L102.85-25.25Q102.85-23.9 104.45-23.25 106.05-22.6 109.6-21.9L109.6-21.9Q113.75-21.05 116.42-20.13 119.1-19.2 121.1-17.1 123.1-15 123.15-11.4L123.15-11.4Q123.15-5.3 119.02-2.35 114.9 0.6 108 0.6L108 0.6Q99.95 0.6 95.47-2.1 91-4.8 91-11.65L91-11.65 101.45-11.65Q101.45-9.05 102.8-8.18 104.15-7.3 107-7.3L107-7.3Q109.1-7.3 110.47-7.75 111.85-8.2 111.85-9.6L111.85-9.6Q111.85-10.85 110.32-11.48 108.8-12.1 105.35-12.8L105.35-12.8Q101.15-13.7 98.4-14.68 95.65-15.65 93.6-17.9 91.55-20.15 91.55-24L91.55-24Q91.55-29.65 95.92-32.33 100.3-35 107-35L107-35ZM168.19-34.4Q170.79-34.4 172.97-33.33 175.14-32.25 176.42-30.3 177.69-28.35 177.69-25.95L177.69-25.95Q177.69-19.6 171.94-17.95L171.94-17.95 171.94-17.75Q178.49-16.25 178.49-9.15L178.49-9.15Q178.49-6.45 177.17-4.38 175.84-2.3 173.54-1.15 171.24 0 168.49 0L168.49 0 145.29 0 145.29-34.4 168.19-34.4ZM156.34-26.85L156.34-21 163.94-21Q165.04-21 165.77-21.78 166.49-22.55 166.49-23.7L166.49-23.7 166.49-24.2Q166.49-25.3 165.74-26.08 164.99-26.85 163.94-26.85L163.94-26.85 156.34-26.85ZM156.34-13.9L156.34-8 164.74-8Q165.84-8 166.57-8.78 167.29-9.55 167.29-10.7L167.29-10.7 167.29-11.2Q167.29-12.35 166.57-13.13 165.84-13.9 164.74-13.9L164.74-13.9 156.34-13.9ZM210.79 0L202.64 0 201.99-4Q200.44-1.85 197.91-0.63 195.39 0.6 192.59 0.6L192.59 0.6Q187.99 0.6 185.69-1.95 183.39-4.5 183.39-9.3L183.39-9.3 183.39-26.4 193.34-26.4 193.34-10.5Q193.34-8.8 194.21-7.78 195.09-6.75 196.69-6.75L196.69-6.75Q198.54-6.75 199.69-7.95 200.84-9.15 200.84-10.9L200.84-10.9 200.84-26.4 210.79-26.4 210.79 0ZM232.89-27.05Q234.04-27.05 234.94-26.78 235.84-26.5 235.84-26.45L235.84-26.45 235.84-18.1 232.64-18.1Q229.54-18.1 228.16-16.5 226.79-14.9 226.79-11.75L226.79-11.75 226.79 0 216.84 0 216.84-26.4 224.99-26.4 225.64-22.4Q226.54-24.7 228.49-25.88 230.44-27.05 232.89-27.05L232.89-27.05ZM269.98-31.35Q269.98-28.3 268.46-26.65 266.93-25 263.88-24.2L263.88-24.2Q265.33-23.1 266.16-21.63 266.98-20.15 266.98-18.5L266.98-18.5Q266.98-14.3 263.81-12.15 260.63-10 255.88-10L255.88-10 252.08-10Q248.93-10 248.93-8.55L248.93-8.55Q248.93-7.85 249.63-7.43 250.33-7 252.08-7L252.08-7 261.08-7Q265.48-7 267.73-4.7 269.98-2.4 269.98 1.45L269.98 1.45Q269.98 4.3 268.48 6.35 266.98 8.4 264.43 9.45 261.88 10.5 258.88 10.5L258.88 10.5 244.18 10.5Q242.38 10.5 240.86 9.65 239.33 8.8 238.43 7.33 237.53 5.85 237.53 4.05L237.53 4.05Q237.53 2.1 238.73 0.53 239.93-1.05 241.73-1.85L241.73-1.85Q240.53-2.7 239.83-3.9 239.13-5.1 239.13-6.5L239.13-6.5Q239.13-8.45 240.58-10.03 242.03-11.6 244.18-12.15L244.18-12.15Q242.23-13.4 241.08-15.03 239.93-16.65 239.93-18.45L239.93-18.45Q239.93-23.05 243.66-25.03 247.38-27 253.53-27L253.53-27Q256.23-27 257.88-26.7L257.88-26.7Q260.33-28.25 261.06-29.53 261.78-30.8 261.78-31.35L261.78-31.35 269.98-31.35ZM253.43-21.8Q251.78-21.8 250.73-20.95 249.68-20.1 249.68-18.5L249.68-18.5Q249.68-16.85 250.66-16.03 251.63-15.2 253.43-15.2L253.43-15.2Q255.23-15.2 256.26-16.03 257.28-16.85 257.28-18.5L257.28-18.5Q257.28-20.15 256.26-20.98 255.23-21.8 253.43-21.8L253.43-21.8ZM249.58 0Q248.43 0 247.71 0.63 246.98 1.25 246.98 2.4L246.98 2.4Q246.98 3.55 247.73 4.25 248.48 4.95 249.58 4.95L249.58 4.95 257.38 4.95Q258.48 4.95 259.26 4.28 260.03 3.6 260.03 2.45L260.03 2.45Q260.03 1.3 259.28 0.65 258.53 0 257.38 0L257.38 0 249.58 0ZM287.28-27Q294.53-27 298.36-23.6 302.18-20.2 302.18-13.2L302.18-13.2 302.18-11.5 282.38-11.5Q282.38-8.65 283.66-7.2 284.93-5.75 287.68-5.75L287.68-5.75Q290.18-5.75 291.36-6.8 292.53-7.85 292.53-9.6L292.53-9.6 302.18-9.6Q302.18-4.8 298.53-2.1 294.88 0.6 287.88 0.6L287.88 0.6Q280.53 0.6 276.48-2.83 272.43-6.25 272.43-13.2L272.43-13.2Q272.43-20 276.38-23.5 280.33-27 287.28-27L287.28-27ZM287.68-20.65Q282.98-20.65 282.43-16.2L282.43-16.2 292.13-16.2Q292.13-18.25 290.96-19.45 289.78-20.65 287.68-20.65L287.68-20.65ZM323.03-27.05Q324.18-27.05 325.08-26.78 325.98-26.5 325.98-26.45L325.98-26.45 325.98-18.1 322.78-18.1Q319.68-18.1 318.3-16.5 316.93-14.9 316.93-11.75L316.93-11.75 316.93 0 306.98 0 306.98-26.4 315.13-26.4 315.78-22.4Q316.68-24.7 318.63-25.88 320.58-27.05 323.03-27.05L323.03-27.05Z" opacity="1" transform="matrix(1,0,0,1,0,0)" fill="#211f1f" class="wordmark-text-0" data-fill-palette-color="primary" id="text-0"></path></svg></g></svg></g><g transform="matrix(1,0,0,1,3.5,60.63820961978182)"><svg viewBox="0 0 309.416 25.502789461266225" height="25.502789461266225" width="309.416"><g transform="matrix(1,0,0,1,0,0)"><svg width="309.416" viewBox="-2.55 -40.83 636.68 53.41" height="25.502789461266225" data-palette-color="#211f1f"><path d="M23.88-32.52L22.7-30.23Q22.48-29.85 22.23-29.66 21.98-29.48 21.58-29.48L21.58-29.48Q21.15-29.48 20.59-29.9 20.03-30.33 19.16-30.84 18.3-31.35 17.09-31.78 15.88-32.2 14.15-32.2L14.15-32.2Q12.53-32.2 11.28-31.76 10.03-31.33 9.19-30.58 8.35-29.83 7.93-28.81 7.5-27.8 7.5-26.63L7.5-26.63Q7.5-25.13 8.24-24.14 8.97-23.15 10.19-22.45 11.4-21.75 12.94-21.24 14.48-20.73 16.09-20.18 17.7-19.63 19.24-18.94 20.78-18.25 21.99-17.2 23.2-16.15 23.94-14.63 24.68-13.1 24.68-10.88L24.68-10.88Q24.68-8.53 23.88-6.46 23.08-4.4 21.54-2.88 20-1.35 17.76-0.48 15.53 0.4 12.68 0.4L12.68 0.4Q9.2 0.4 6.34-0.86 3.48-2.13 1.45-4.28L1.45-4.28 2.85-6.58Q3.05-6.85 3.34-7.04 3.63-7.23 3.98-7.23L3.98-7.23Q4.5-7.23 5.18-6.66 5.85-6.1 6.86-5.43 7.88-4.75 9.31-4.19 10.75-3.63 12.83-3.63L12.83-3.63Q14.55-3.63 15.9-4.1 17.25-4.58 18.19-5.44 19.13-6.3 19.63-7.5 20.13-8.7 20.13-10.18L20.13-10.18Q20.13-11.8 19.39-12.84 18.65-13.88 17.45-14.58 16.25-15.28 14.71-15.76 13.18-16.25 11.56-16.76 9.95-17.28 8.41-17.95 6.88-18.63 5.68-19.7 4.48-20.78 3.74-22.39 3-24 3-26.38L3-26.38Q3-28.28 3.74-30.05 4.48-31.83 5.88-33.2 7.28-34.58 9.34-35.4 11.4-36.23 14.08-36.23L14.08-36.23Q17.07-36.23 19.55-35.27 22.03-34.33 23.88-32.52L23.88-32.52ZM48.75-16.2L48.75 0 46.77 0Q46.12 0 45.72-0.2 45.32-0.4 45.2-1.05L45.2-1.05 44.7-3.4Q43.7-2.5 42.75-1.79 41.8-1.07 40.75-0.59 39.7-0.1 38.51 0.15 37.32 0.4 35.87 0.4L35.87 0.4Q34.4 0.4 33.11-0.01 31.82-0.43 30.87-1.25 29.92-2.08 29.36-3.34 28.8-4.6 28.8-6.33L28.8-6.33Q28.8-7.83 29.62-9.21 30.45-10.6 32.28-11.68 34.12-12.75 37.1-13.44 40.07-14.13 44.37-14.23L44.37-14.23 44.37-16.2Q44.37-19.15 43.11-20.66 41.85-22.18 39.37-22.18L39.37-22.18Q37.75-22.18 36.63-21.76 35.52-21.35 34.71-20.84 33.9-20.33 33.31-19.91 32.72-19.5 32.15-19.5L32.15-19.5Q31.7-19.5 31.36-19.74 31.02-19.98 30.82-20.33L30.82-20.33 30.02-21.75Q32.12-23.78 34.55-24.78 36.97-25.78 39.92-25.78L39.92-25.78Q42.05-25.78 43.7-25.08 45.35-24.38 46.47-23.13 47.6-21.88 48.17-20.1 48.75-18.32 48.75-16.2L48.75-16.2ZM37.2-2.73L37.2-2.73Q38.37-2.73 39.35-2.96 40.32-3.2 41.19-3.64 42.05-4.08 42.84-4.7 43.62-5.33 44.37-6.13L44.37-6.13 44.37-11.4Q41.3-11.3 39.15-10.91 37-10.53 35.65-9.9 34.3-9.28 33.69-8.43 33.07-7.58 33.07-6.53L33.07-6.53Q33.07-5.53 33.4-4.8 33.72-4.08 34.27-3.61 34.82-3.15 35.57-2.94 36.32-2.73 37.2-2.73ZM61.82 0L51.5-25.33 55.15-25.33Q55.67-25.33 56.02-25.05 56.37-24.78 56.52-24.4L56.52-24.4 62.95-8.1Q63.3-7.2 63.5-6.3 63.7-5.4 63.87-4.53L63.87-4.53Q64.07-5.4 64.3-6.3 64.52-7.2 64.87-8.1L64.87-8.1 71.37-24.4Q71.52-24.8 71.86-25.06 72.2-25.33 72.7-25.33L72.7-25.33 76.17-25.33 65.84 0 61.82 0ZM89.89-25.73L89.89-25.73Q92.67-25.73 94.91-24.8 97.14-23.88 98.71-22.18 100.27-20.48 101.11-18.06 101.94-15.65 101.94-12.68L101.94-12.68Q101.94-9.68 101.11-7.28 100.27-4.88 98.71-3.18 97.14-1.48 94.91-0.56 92.67 0.35 89.89 0.35L89.89 0.35Q87.12 0.35 84.88-0.56 82.64-1.48 81.07-3.18 79.49-4.88 78.64-7.28 77.79-9.68 77.79-12.68L77.79-12.68Q77.79-15.65 78.64-18.06 79.49-20.48 81.07-22.18 82.64-23.88 84.88-24.8 87.12-25.73 89.89-25.73ZM89.89-3.13L89.89-3.13Q93.64-3.13 95.49-5.64 97.34-8.15 97.34-12.65L97.34-12.65Q97.34-17.18 95.49-19.7 93.64-22.23 89.89-22.23L89.89-22.23Q87.99-22.23 86.59-21.58 85.19-20.93 84.26-19.7 83.32-18.48 82.86-16.69 82.39-14.9 82.39-12.65L82.39-12.65Q82.39-10.4 82.86-8.63 83.32-6.85 84.26-5.64 85.19-4.42 86.59-3.78 87.99-3.13 89.89-3.13ZM111.89 0L107.44 0 107.44-25.33 109.99-25.33Q110.72-25.33 110.99-25.05 111.27-24.78 111.37-24.1L111.37-24.1 111.67-20.15Q112.97-22.8 114.88-24.29 116.79-25.78 119.37-25.78L119.37-25.78Q120.42-25.78 121.27-25.54 122.12-25.3 122.84-24.88L122.84-24.88 122.27-21.55Q122.09-20.93 121.49-20.93L121.49-20.93Q121.14-20.93 120.42-21.16 119.69-21.4 118.39-21.4L118.39-21.4Q116.07-21.4 114.5-20.05 112.94-18.7 111.89-16.13L111.89-16.13 111.89 0ZM144.91 0.4L144.91 0.4Q141.91 0.4 140.3-1.28 138.69-2.95 138.69-6.1L138.69-6.1 138.69-21.6 135.64-21.6Q135.24-21.6 134.96-21.84 134.69-22.08 134.69-22.58L134.69-22.58 134.69-24.35 138.84-24.88 139.86-32.7Q139.91-33.08 140.19-33.31 140.46-33.55 140.89-33.55L140.89-33.55 143.14-33.55 143.14-24.83 150.39-24.83 150.39-21.6 143.14-21.6 143.14-6.4Q143.14-4.8 143.91-4.03 144.69-3.25 145.91-3.25L145.91-3.25Q146.61-3.25 147.12-3.44 147.64-3.63 148.01-3.85 148.39-4.08 148.65-4.26 148.91-4.45 149.11-4.45L149.11-4.45Q149.46-4.45 149.74-4.03L149.74-4.03 151.03-1.9Q149.89-0.83 148.26-0.21 146.64 0.4 144.91 0.4ZM160.33 0L155.88 0 155.88-36.83 160.33-36.83 160.33-21.93Q161.96-23.65 163.93-24.69 165.91-25.73 168.48-25.73L168.48-25.73Q170.56-25.73 172.15-25.04 173.73-24.35 174.8-23.09 175.86-21.83 176.41-20.05 176.96-18.28 176.96-16.13L176.96-16.13 176.96 0 172.51 0 172.51-16.13Q172.51-19 171.2-20.59 169.88-22.18 167.18-22.18L167.18-22.18Q165.21-22.18 163.5-21.23 161.78-20.28 160.33-18.65L160.33-18.65 160.33 0ZM193.71-25.73L193.71-25.73Q195.98-25.73 197.91-24.96 199.83-24.2 201.23-22.76 202.63-21.33 203.42-19.21 204.21-17.1 204.21-14.4L204.21-14.4Q204.21-13.35 203.98-13 203.76-12.65 203.13-12.65L203.13-12.65 186.28-12.65Q186.33-10.25 186.93-8.47 187.53-6.7 188.58-5.51 189.63-4.33 191.08-3.74 192.53-3.15 194.33-3.15L194.33-3.15Q196.01-3.15 197.22-3.54 198.43-3.93 199.31-4.38 200.18-4.83 200.77-5.21 201.36-5.6 201.78-5.6L201.78-5.6Q202.33-5.6 202.63-5.18L202.63-5.18 203.88-3.55Q203.06-2.55 201.91-1.81 200.76-1.07 199.44-0.6 198.13-0.13 196.73 0.11 195.33 0.35 193.96 0.35L193.96 0.35Q191.33 0.35 189.12-0.54 186.91-1.43 185.29-3.14 183.68-4.85 182.78-7.38 181.88-9.9 181.88-13.18L181.88-13.18Q181.88-15.83 182.69-18.13 183.51-20.43 185.03-22.11 186.56-23.8 188.76-24.76 190.96-25.73 193.71-25.73ZM193.81-22.45L193.81-22.45Q190.58-22.45 188.73-20.59 186.88-18.73 186.43-15.43L186.43-15.43 200.21-15.43Q200.21-16.98 199.78-18.26 199.36-19.55 198.53-20.49 197.71-21.43 196.52-21.94 195.33-22.45 193.81-22.45ZM237.85-12.95L237.85-12.95Q238.2-12.35 238.46-11.69 238.73-11.03 238.98-10.35L238.98-10.35Q239.23-11.05 239.5-11.69 239.78-12.33 240.13-12.98L240.13-12.98 252.25-35Q252.58-35.58 252.93-35.7 253.28-35.83 253.93-35.83L253.93-35.83 257.5-35.83 257.5 0 253.25 0 253.25-26.33Q253.25-26.85 253.28-27.45 253.3-28.05 253.35-28.68L253.35-28.68 241.08-6.28Q240.45-5.15 239.33-5.15L239.33-5.15 238.63-5.15Q237.5-5.15 236.88-6.28L236.88-6.28 224.33-28.75Q224.4-28.1 224.44-27.48 224.48-26.85 224.48-26.33L224.48-26.33 224.48 0 220.23 0 220.23-35.83 223.8-35.83Q224.45-35.83 224.8-35.7 225.15-35.58 225.48-35L225.48-35 237.85-12.95ZM299.5-17.9L299.5-17.9Q299.5-13.88 298.22-10.51 296.95-7.15 294.62-4.73 292.3-2.3 289.04-0.96 285.77 0.38 281.82 0.38L281.82 0.38Q277.87 0.38 274.62-0.96 271.37-2.3 269.05-4.73 266.72-7.15 265.45-10.51 264.17-13.88 264.17-17.9L264.17-17.9Q264.17-21.93 265.45-25.29 266.72-28.65 269.05-31.09 271.37-33.52 274.62-34.88 277.87-36.23 281.82-36.23L281.82-36.23Q285.77-36.23 289.04-34.88 292.3-33.52 294.62-31.09 296.95-28.65 298.22-25.29 299.5-21.93 299.5-17.9ZM294.52-17.9L294.52-17.9Q294.52-21.2 293.62-23.83 292.72-26.45 291.07-28.26 289.42-30.08 287.07-31.05 284.72-32.02 281.82-32.02L281.82-32.02Q278.95-32.02 276.6-31.05 274.25-30.08 272.58-28.26 270.92-26.45 270.02-23.83 269.12-21.2 269.12-17.9L269.12-17.9Q269.12-14.6 270.02-11.99 270.92-9.38 272.58-7.56 274.25-5.75 276.6-4.79 278.95-3.83 281.82-3.83L281.82-3.83Q284.72-3.83 287.07-4.79 289.42-5.75 291.07-7.56 292.72-9.38 293.62-11.99 294.52-14.6 294.52-17.9ZM325.65-32.52L324.47-30.23Q324.25-29.85 324-29.66 323.75-29.48 323.35-29.48L323.35-29.48Q322.92-29.48 322.36-29.9 321.8-30.33 320.93-30.84 320.07-31.35 318.86-31.78 317.65-32.2 315.92-32.2L315.92-32.2Q314.3-32.2 313.05-31.76 311.8-31.33 310.96-30.58 310.12-29.83 309.7-28.81 309.27-27.8 309.27-26.63L309.27-26.63Q309.27-25.13 310.01-24.14 310.75-23.15 311.96-22.45 313.17-21.75 314.71-21.24 316.25-20.73 317.86-20.18 319.47-19.63 321.01-18.94 322.55-18.25 323.76-17.2 324.97-16.15 325.71-14.63 326.45-13.1 326.45-10.88L326.45-10.88Q326.45-8.53 325.65-6.46 324.85-4.4 323.31-2.88 321.77-1.35 319.53-0.48 317.3 0.4 314.45 0.4L314.45 0.4Q310.97 0.4 308.11-0.86 305.25-2.13 303.22-4.28L303.22-4.28 304.62-6.58Q304.82-6.85 305.11-7.04 305.4-7.23 305.75-7.23L305.75-7.23Q306.27-7.23 306.95-6.66 307.62-6.1 308.63-5.43 309.65-4.75 311.08-4.19 312.52-3.63 314.6-3.63L314.6-3.63Q316.32-3.63 317.67-4.1 319.02-4.58 319.96-5.44 320.9-6.3 321.4-7.5 321.9-8.7 321.9-10.18L321.9-10.18Q321.9-11.8 321.16-12.84 320.42-13.88 319.22-14.58 318.02-15.28 316.48-15.76 314.95-16.25 313.33-16.76 311.72-17.28 310.18-17.95 308.65-18.63 307.45-19.7 306.25-20.78 305.51-22.39 304.77-24 304.77-26.38L304.77-26.38Q304.77-28.28 305.51-30.05 306.25-31.83 307.65-33.2 309.05-34.58 311.11-35.4 313.17-36.23 315.85-36.23L315.85-36.23Q318.85-36.23 321.32-35.27 323.8-34.33 325.65-32.52L325.65-32.52ZM330.62-3.08L330.62-3.08Q330.62-3.65 330.83-4.16 331.04-4.67 331.43-5.06 331.82-5.45 332.37-5.68 332.92-5.9 333.57-5.9L333.57-5.9Q334.32-5.9 334.91-5.63 335.49-5.35 335.88-4.86 336.27-4.38 336.47-3.74 336.67-3.1 336.67-2.35L336.67-2.35Q336.67-1.23 336.34-0.01 336.02 1.2 335.42 2.39 334.82 3.58 333.93 4.7 333.04 5.83 331.92 6.78L331.92 6.78 331.17 6.05Q330.84 5.75 330.84 5.35L330.84 5.35Q330.84 5.03 331.19 4.67L331.19 4.67Q331.44 4.4 331.83 3.94 332.22 3.48 332.62 2.88 333.02 2.27 333.36 1.55 333.69 0.83 333.84 0L333.84 0 333.52 0Q332.87 0 332.34-0.23 331.82-0.45 331.43-0.86 331.04-1.28 330.83-1.84 330.62-2.4 330.62-3.08ZM349.21-35.83L377.26-35.83 377.26-31.75 365.69-31.75 365.69 0 360.84 0 360.84-31.75 349.21-31.75 349.21-35.83ZM394.01-16.2L394.01 0 392.04 0Q391.39 0 390.99-0.2 390.59-0.4 390.46-1.05L390.46-1.05 389.96-3.4Q388.96-2.5 388.01-1.79 387.06-1.07 386.01-0.59 384.96-0.1 383.77 0.15 382.59 0.4 381.14 0.4L381.14 0.4Q379.66 0.4 378.37-0.01 377.09-0.43 376.14-1.25 375.19-2.08 374.62-3.34 374.06-4.6 374.06-6.33L374.06-6.33Q374.06-7.83 374.89-9.21 375.71-10.6 377.55-11.68 379.39-12.75 382.36-13.44 385.34-14.13 389.64-14.23L389.64-14.23 389.64-16.2Q389.64-19.15 388.37-20.66 387.11-22.18 384.64-22.18L384.64-22.18Q383.01-22.18 381.9-21.76 380.79-21.35 379.97-20.84 379.16-20.33 378.57-19.91 377.99-19.5 377.41-19.5L377.41-19.5Q376.96-19.5 376.62-19.74 376.29-19.98 376.09-20.33L376.09-20.33 375.29-21.75Q377.39-23.78 379.81-24.78 382.24-25.78 385.19-25.78L385.19-25.78Q387.31-25.78 388.96-25.08 390.61-24.38 391.74-23.13 392.86-21.88 393.44-20.1 394.01-18.32 394.01-16.2L394.01-16.2ZM382.46-2.73L382.46-2.73Q383.64-2.73 384.61-2.96 385.59-3.2 386.45-3.64 387.31-4.08 388.1-4.7 388.89-5.33 389.64-6.13L389.64-6.13 389.64-11.4Q386.56-11.3 384.41-10.91 382.26-10.53 380.91-9.9 379.56-9.28 378.95-8.43 378.34-7.58 378.34-6.53L378.34-6.53Q378.34-5.53 378.66-4.8 378.99-4.08 379.54-3.61 380.09-3.15 380.84-2.94 381.59-2.73 382.46-2.73ZM416.26-22.78L415.26-21.15Q414.96-20.6 414.33-20.6L414.33-20.6Q413.96-20.6 413.48-20.88 413.01-21.15 412.32-21.49 411.63-21.83 410.68-22.11 409.73-22.4 408.43-22.4L408.43-22.4Q407.31-22.4 406.41-22.11 405.51-21.83 404.87-21.33 404.23-20.83 403.9-20.16 403.56-19.5 403.56-18.73L403.56-18.73Q403.56-17.75 404.12-17.1 404.68-16.45 405.61-15.98 406.53-15.5 407.71-15.14 408.88-14.78 410.12-14.36 411.36-13.95 412.53-13.45 413.71-12.95 414.63-12.2 415.56-11.45 416.12-10.36 416.68-9.28 416.68-7.75L416.68-7.75Q416.68-6 416.06-4.51 415.43-3.03 414.21-1.94 412.98-0.85 411.21-0.23 409.43 0.4 407.11 0.4L407.11 0.4Q404.46 0.4 402.31-0.46 400.16-1.33 398.66-2.68L398.66-2.68 399.71-4.38Q399.91-4.7 400.18-4.88 400.46-5.05 400.91-5.05L400.91-5.05Q401.36-5.05 401.86-4.7 402.36-4.35 403.07-3.93 403.78-3.5 404.8-3.15 405.81-2.8 407.33-2.8L407.33-2.8Q408.63-2.8 409.61-3.14 410.58-3.48 411.23-4.05 411.88-4.63 412.2-5.38 412.51-6.13 412.51-6.98L412.51-6.98Q412.51-8.03 411.95-8.71 411.38-9.4 410.46-9.89 409.53-10.38 408.35-10.74 407.16-11.1 405.92-11.5 404.68-11.9 403.5-12.41 402.31-12.93 401.38-13.7 400.46-14.48 399.9-15.61 399.33-16.75 399.33-18.38L399.33-18.38Q399.33-19.83 399.93-21.16 400.53-22.5 401.68-23.51 402.83-24.53 404.51-25.13 406.18-25.73 408.33-25.73L408.33-25.73Q410.83-25.73 412.82-24.94 414.81-24.15 416.26-22.78L416.26-22.78ZM430.13 0.4L430.13 0.4Q427.13 0.4 425.52-1.28 423.91-2.95 423.91-6.1L423.91-6.1 423.91-21.6 420.86-21.6Q420.46-21.6 420.18-21.84 419.91-22.08 419.91-22.58L419.91-22.58 419.91-24.35 424.06-24.88 425.08-32.7Q425.13-33.08 425.41-33.31 425.68-33.55 426.11-33.55L426.11-33.55 428.36-33.55 428.36-24.83 435.61-24.83 435.61-21.6 428.36-21.6 428.36-6.4Q428.36-4.8 429.13-4.03 429.91-3.25 431.13-3.25L431.13-3.25Q431.83-3.25 432.34-3.44 432.86-3.63 433.23-3.85 433.61-4.08 433.87-4.26 434.13-4.45 434.33-4.45L434.33-4.45Q434.68-4.45 434.96-4.03L434.96-4.03 436.26-1.9Q435.11-0.83 433.48-0.21 431.86 0.4 430.13 0.4ZM451.13-25.73L451.13-25.73Q453.4-25.73 455.33-24.96 457.25-24.2 458.65-22.76 460.05-21.33 460.84-19.21 461.63-17.1 461.63-14.4L461.63-14.4Q461.63-13.35 461.4-13 461.18-12.65 460.55-12.65L460.55-12.65 443.7-12.65Q443.75-10.25 444.35-8.47 444.95-6.7 446-5.51 447.05-4.33 448.5-3.74 449.95-3.15 451.75-3.15L451.75-3.15Q453.43-3.15 454.64-3.54 455.85-3.93 456.73-4.38 457.6-4.83 458.19-5.21 458.78-5.6 459.2-5.6L459.2-5.6Q459.75-5.6 460.05-5.18L460.05-5.18 461.3-3.55Q460.48-2.55 459.33-1.81 458.18-1.07 456.87-0.6 455.55-0.13 454.15 0.11 452.75 0.35 451.38 0.35L451.38 0.35Q448.75 0.35 446.54-0.54 444.33-1.43 442.72-3.14 441.1-4.85 440.2-7.38 439.3-9.9 439.3-13.18L439.3-13.18Q439.3-15.83 440.12-18.13 440.93-20.43 442.45-22.11 443.98-23.8 446.18-24.76 448.38-25.73 451.13-25.73ZM451.23-22.45L451.23-22.45Q448-22.45 446.15-20.59 444.3-18.73 443.85-15.43L443.85-15.43 457.63-15.43Q457.63-16.98 457.2-18.26 456.78-19.55 455.95-20.49 455.13-21.43 453.94-21.94 452.75-22.45 451.23-22.45ZM484.62 0.4L484.62 0.4Q481.62 0.4 480.01-1.28 478.4-2.95 478.4-6.1L478.4-6.1 478.4-21.6 475.35-21.6Q474.95-21.6 474.67-21.84 474.4-22.08 474.4-22.58L474.4-22.58 474.4-24.35 478.55-24.88 479.57-32.7Q479.62-33.08 479.9-33.31 480.17-33.55 480.6-33.55L480.6-33.55 482.85-33.55 482.85-24.83 490.1-24.83 490.1-21.6 482.85-21.6 482.85-6.4Q482.85-4.8 483.62-4.03 484.4-3.25 485.62-3.25L485.62-3.25Q486.32-3.25 486.84-3.44 487.35-3.63 487.72-3.85 488.1-4.08 488.36-4.26 488.62-4.45 488.82-4.45L488.82-4.45Q489.17-4.45 489.45-4.03L489.45-4.03 490.75-1.9Q489.6-0.83 487.97-0.21 486.35 0.4 484.62 0.4ZM500.05 0L495.59 0 495.59-36.83 500.05-36.83 500.05-21.93Q501.67-23.65 503.64-24.69 505.62-25.73 508.19-25.73L508.19-25.73Q510.27-25.73 511.86-25.04 513.44-24.35 514.51-23.09 515.57-21.83 516.12-20.05 516.67-18.28 516.67-16.13L516.67-16.13 516.67 0 512.22 0 512.22-16.13Q512.22-19 510.91-20.59 509.59-22.18 506.89-22.18L506.89-22.18Q504.92-22.18 503.21-21.23 501.5-20.28 500.05-18.65L500.05-18.65 500.05 0ZM533.42-25.73L533.42-25.73Q535.69-25.73 537.62-24.96 539.54-24.2 540.94-22.76 542.34-21.33 543.13-19.21 543.92-17.1 543.92-14.4L543.92-14.4Q543.92-13.35 543.69-13 543.47-12.65 542.84-12.65L542.84-12.65 525.99-12.65Q526.04-10.25 526.64-8.47 527.24-6.7 528.29-5.51 529.34-4.33 530.79-3.74 532.24-3.15 534.04-3.15L534.04-3.15Q535.72-3.15 536.93-3.54 538.14-3.93 539.02-4.38 539.89-4.83 540.48-5.21 541.07-5.6 541.49-5.6L541.49-5.6Q542.04-5.6 542.34-5.18L542.34-5.18 543.59-3.55Q542.77-2.55 541.62-1.81 540.47-1.07 539.15-0.6 537.84-0.13 536.44 0.11 535.04 0.35 533.67 0.35L533.67 0.35Q531.04 0.35 528.83-0.54 526.62-1.43 525-3.14 523.39-4.85 522.49-7.38 521.59-9.9 521.59-13.18L521.59-13.18Q521.59-15.83 522.4-18.13 523.22-20.43 524.74-22.11 526.27-23.8 528.47-24.76 530.67-25.73 533.42-25.73ZM533.52-22.45L533.52-22.45Q530.29-22.45 528.44-20.59 526.59-18.73 526.14-15.43L526.14-15.43 539.92-15.43Q539.92-16.98 539.49-18.26 539.07-19.55 538.24-20.49 537.42-21.43 536.23-21.94 535.04-22.45 533.52-22.45ZM573.41-35.83L573.41-12.38Q573.41-9.38 572.67-7 571.94-4.63 570.5-2.99 569.06-1.35 566.96-0.48 564.86 0.4 562.14 0.4L562.14 0.4Q559.71 0.4 557.09-0.3L557.09-0.3Q557.14-1.03 557.21-1.74 557.29-2.45 557.36-3.15L557.36-3.15Q557.41-3.58 557.67-3.84 557.94-4.1 558.46-4.1L558.46-4.1Q558.91-4.1 559.66-3.88 560.41-3.65 561.66-3.65L561.66-3.65Q563.31-3.65 564.6-4.15 565.89-4.65 566.77-5.7 567.66-6.75 568.12-8.39 568.59-10.03 568.59-12.28L568.59-12.28 568.59-35.83 573.41-35.83ZM591.68-25.73L591.68-25.73Q594.46-25.73 596.7-24.8 598.93-23.88 600.5-22.18 602.06-20.48 602.9-18.06 603.73-15.65 603.73-12.68L603.73-12.68Q603.73-9.68 602.9-7.28 602.06-4.88 600.5-3.18 598.93-1.48 596.7-0.56 594.46 0.35 591.68 0.35L591.68 0.35Q588.91 0.35 586.67-0.56 584.43-1.48 582.86-3.18 581.28-4.88 580.43-7.28 579.58-9.68 579.58-12.68L579.58-12.68Q579.58-15.65 580.43-18.06 581.28-20.48 582.86-22.18 584.43-23.88 586.67-24.8 588.91-25.73 591.68-25.73ZM591.68-3.13L591.68-3.13Q595.43-3.13 597.28-5.64 599.13-8.15 599.13-12.65L599.13-12.65Q599.13-17.18 597.28-19.7 595.43-22.23 591.68-22.23L591.68-22.23Q589.78-22.23 588.38-21.58 586.98-20.93 586.05-19.7 585.11-18.48 584.65-16.69 584.18-14.9 584.18-12.65L584.18-12.65Q584.18-10.4 584.65-8.63 585.11-6.85 586.05-5.64 586.98-4.42 588.38-3.78 589.78-3.13 591.68-3.13ZM630.13-25.33L616.01 7.48Q615.78 7.98 615.44 8.28 615.11 8.58 614.41 8.58L614.41 8.58 611.11 8.58 615.73-1.48 605.28-25.33 609.13-25.33Q609.71-25.33 610.03-25.04 610.36-24.75 610.51-24.4L610.51-24.4 617.28-8.45Q617.51-7.9 617.67-7.35 617.83-6.8 617.96-6.23L617.96-6.23Q618.13-6.8 618.31-7.35 618.48-7.9 618.71-8.47L618.71-8.47 625.28-24.4Q625.43-24.8 625.79-25.06 626.16-25.33 626.58-25.33L626.58-25.33 630.13-25.33Z" opacity="1" transform="matrix(1,0,0,1,0,0)" fill="#211f1f" class="slogan-text-1" data-fill-palette-color="secondary" id="text-1"></path></svg></g></svg></g></svg></g></svg></g></svg></g></svg></g></svg></g><g mask="url(#38599ec8-f6f8-413d-902e-a0dbe438b74f)"><g transform="matrix(6.4387374612677934, 0, 0, 6.4387374612677934, 75.72451466040441, 1)"><svg xmlns="http://www.w3.org/2000/svg" xmlns:xlink="http://www.w3.org/1999/xlink" version="1.1" x="0" y="0" viewBox="34.578524989807136 33.282 37.90665051143945 38.08199999999998" enable-background="new 0 0 100 100" xml:space="preserve" height="38.08199999999998" width="37.90665051143945" class="icon-none" data-fill-palette-color="accent" id="none"><g fill="#211f1f" data-fill-palette-color="accent"><path d="M44.614 46.07c0.389-0.508 0.813-0.995 1.272-1.454l-0.707-0.707-0.707-0.707c-4.268 4.268-5.91 10.543-4.286 16.377l1.927-0.536c-0.175-0.629-0.306-1.264-0.396-1.901C41.162 53.212 42.208 49.212 44.614 46.07z" fill="#211f1f" data-fill-palette-color="accent"></path><path d="M72.172 40.629l0.262-0.262-0.707-0.707c-4.113-4.113-9.581-6.378-15.397-6.378-4.77 0-9.292 1.545-13.038 4.361-0.074-0.97-0.463-1.92-1.203-2.66-0.797-0.796-1.856-1.235-2.982-1.235s-2.186 0.439-2.982 1.235c-0.797 0.797-1.236 1.856-1.236 2.982 0 1.127 0.439 2.186 1.236 2.982 0.728 0.728 1.678 1.139 2.694 1.208-6.28 8.516-5.592 20.594 2.113 28.299l0.707 0.707 0.127-0.127c0.448 0.211 0.965 0.33 1.565 0.33 3.816 0 10.96-4.581 17.777-11.397 3.969-3.969 7.275-8.143 9.31-11.754C72.333 44.814 72.917 42.23 72.172 40.629zM37.538 39.535c-0.419-0.419-0.65-0.976-0.65-1.568 0-0.592 0.231-1.149 0.65-1.568 0.419-0.418 0.976-0.649 1.568-0.649s1.149 0.231 1.568 0.649c0.864 0.865 0.865 2.272 0 3.137C39.836 40.373 38.375 40.373 37.538 39.535zM40.336 66.682c-5.623-7.729-4.958-18.64 2.009-25.607 3.735-3.735 8.701-5.792 13.984-5.792 4.279 0 8.348 1.355 11.725 3.854-4.001 0.803-10.393 5.115-16.528 11.25-3.969 3.969-7.275 8.143-9.31 11.754C41.238 63.877 40.624 65.39 40.336 66.682zM68.674 47.233c-1.947 3.457-5.137 7.477-8.981 11.321-7.098 7.098-13.604 10.812-16.363 10.812-0.438 0-0.751-0.091-0.931-0.271-0.575-0.575-0.315-2.645 1.56-5.974 1.947-3.457 5.137-7.477 8.981-11.321 7.098-7.098 13.604-10.812 16.363-10.812 0.438 0 0.751 0.091 0.931 0.271C70.809 41.834 70.55 43.904 68.674 47.233z" fill="#211f1f" data-fill-palette-color="accent"></path></g></svg></g></g></svg></g><defs></defs></svg><rect width="395.52" height="247.2" fill="none" stroke="none" visibility="hidden"></rect></g></svg></g></svg>